<?xml version="1.0" standalone="no"?>
<!DOCTYPE svg PUBLIC "-//W3C//DTD SVG 20010904//EN"
 "http://www.w3.org/TR/2001/REC-SVG-20010904/DTD/svg10.dtd">
<svg version="1.0" xmlns="http://www.w3.org/2000/svg"
 width="650.000000pt" height="100.000000pt" viewBox="0 0 650.000000 100.000000"
 preserveAspectRatio="xMidYMid meet">

<g transform="translate(0.000000,100.000000) scale(0.100000,-0.100000)"
fill="#000000" stroke="none">
<path d="M180 875 c0 -24 3 -25 60 -25 l60 0 0 -30 c0 -27 -3 -30 -30 -30 -27
0 -30 -3 -30 -30 0 -27 -3 -30 -30 -30 -25 0 -30 -4 -30 -25 0 -25 1 -25 85
-25 l85 0 0 -255 0 -255 30 0 c27 0 30 -3 30 -30 l0 -30 105 0 105 0 0 30 c0
27 3 30 30 30 l30 0 0 255 0 255 85 0 85 0 0 30 c0 25 4 30 25 30 24 0 25 3
25 55 0 52 -1 55 -25 55 -20 0 -25 5 -25 25 l0 25 -335 0 -335 0 0 -25z"/>
<path d="M1090 875 c0 -24 3 -25 60 -25 l60 0 0 -30 c0 -27 -3 -30 -30 -30
-27 0 -30 -3 -30 -30 0 -28 -3 -30 -35 -30 l-35 0 0 60 c0 53 -2 60 -20 60
-20 0 -20 -7 -20 -340 l0 -340 25 0 c21 0 25 -5 25 -30 l0 -30 135 0 135 0 0
30 c0 27 3 30 30 30 l30 0 0 85 0 85 35 0 c32 0 35 -2 35 -30 0 -27 3 -30 30
-30 27 0 30 -3 30 -30 0 -25 4 -30 25 -30 20 0 25 -5 25 -25 0 -21 5 -25 30
-25 27 0 30 -3 30 -30 0 -29 1 -30 50 -30 49 0 50 1 50 30 0 25 4 30 25 30
l25 0 0 110 0 110 -25 0 c-21 0 -25 5 -25 30 0 27 -3 30 -30 30 -27 0 -30 3
-30 30 0 27 3 30 30 30 27 0 30 3 30 30 0 25 4 30 25 30 l25 0 0 110 0 110
-25 0 c-21 0 -25 5 -25 30 0 27 -3 30 -30 30 -25 0 -30 4 -30 25 l0 25 -305 0
-305 0 0 -25z m510 -200 l0 -55 -90 0 -90 0 0 55 0 55 90 0 90 0 0 -55z"/>
<path d="M2050 875 c0 -21 5 -25 30 -25 27 0 30 -3 30 -30 0 -27 -3 -30 -30
-30 -27 0 -30 -3 -30 -30 0 -28 -3 -30 -35 -30 -32 0 -35 2 -35 30 0 23 -4 30
-20 30 -20 0 -20 -7 -20 -310 l0 -310 25 0 c21 0 25 -5 25 -30 l0 -30 135 0
135 0 0 30 c0 27 3 30 30 30 l30 0 0 170 0 170 90 0 90 0 0 -170 0 -170 30 0
c27 0 30 -3 30 -30 0 -29 1 -30 50 -30 49 0 50 1 50 30 0 25 4 30 25 30 l25 0
0 280 0 280 -25 0 c-21 0 -25 5 -25 30 0 27 -3 30 -30 30 -25 0 -30 4 -30 25
0 21 -5 25 -30 25 -27 0 -30 3 -30 30 l0 30 -245 0 -245 0 0 -25z m450 -200
l0 -65 -90 0 -90 0 0 65 0 65 90 0 90 0 0 -65z"/>
<path d="M2890 875 c0 -24 3 -25 60 -25 l60 0 0 -30 c0 -27 -3 -30 -30 -30
-27 0 -30 -3 -30 -30 0 -28 -3 -30 -35 -30 l-35 0 0 60 c0 53 -2 60 -20 60
-20 0 -20 -7 -20 -340 l0 -340 25 0 c21 0 25 -5 25 -30 l0 -30 135 0 135 0 0
30 c0 27 3 30 30 30 l30 0 0 85 0 85 140 0 140 0 0 30 c0 27 3 30 30 30 25 0
30 4 30 25 0 20 5 25 25 25 l25 0 0 170 0 170 -25 0 c-21 0 -25 5 -25 30 0 27
-3 30 -30 30 -25 0 -30 4 -30 25 l0 25 -305 0 -305 0 0 -25z m455 -255 l0
-115 -62 -3 -63 -3 0 121 0 121 63 -3 62 -3 0 -115z"/>
<path d="M3800 875 c0 -24 3 -25 60 -25 l60 0 0 -30 c0 -27 -3 -30 -30 -30
-27 0 -30 -3 -30 -30 0 -28 -3 -30 -35 -30 l-35 0 0 60 c0 53 -2 60 -20 60
-20 0 -20 -7 -20 -340 l0 -340 25 0 c21 0 25 -5 25 -30 l0 -30 135 0 135 0 0
30 c0 27 3 30 30 30 l30 0 0 85 0 85 140 0 140 0 0 30 c0 27 3 30 30 30 25 0
30 4 30 25 0 20 5 25 25 25 l25 0 0 170 0 170 -25 0 c-21 0 -25 5 -25 30 0 27
-3 30 -30 30 -25 0 -30 4 -30 25 l0 25 -305 0 -305 0 0 -25z m455 -255 l0
-115 -62 -3 -63 -3 0 121 0 121 63 -3 62 -3 0 -115z"/>
<path d="M4700 875 c0 -24 3 -25 60 -25 l60 0 0 -30 c0 -27 -3 -30 -30 -30
-27 0 -30 -3 -30 -30 0 -28 -3 -30 -35 -30 l-35 0 0 55 c0 48 -2 55 -20 55
-20 0 -20 -7 -20 -335 l0 -335 25 0 c21 0 25 -5 25 -30 l0 -30 335 0 335 0 0
30 c0 25 4 30 25 30 24 0 25 3 25 55 0 52 -1 55 -25 55 -20 0 -25 5 -25 25 l0
25 -170 0 -170 0 0 60 0 60 170 0 170 0 0 30 c0 25 4 30 25 30 20 0 25 5 25
25 0 20 -5 25 -25 25 -20 0 -25 5 -25 25 l0 25 -170 0 -170 0 0 65 0 65 170 0
170 0 0 25 c0 20 5 25 25 25 20 0 25 5 25 25 0 20 -5 25 -25 25 -21 0 -25 5
-25 30 l0 30 -335 0 -335 0 0 -25z"/>
<path d="M5600 875 c0 -24 3 -25 60 -25 l60 0 0 -30 c0 -27 -3 -30 -30 -30
-27 0 -30 -3 -30 -30 0 -28 -3 -30 -35 -30 l-35 0 0 55 c0 48 -2 55 -20 55
-20 0 -20 -7 -20 -335 l0 -335 25 0 c21 0 25 -5 25 -30 l0 -30 305 0 305 0 0
30 c0 27 3 30 30 30 25 0 30 4 30 25 0 20 5 25 25 25 l25 0 0 255 0 255 -25 0
c-21 0 -25 5 -25 30 0 27 -3 30 -30 30 -25 0 -30 4 -30 24 0 19 -6 25 -27 28
-22 2 -29 9 -31 31 l-3 27 -275 0 -274 0 0 -25z m460 -170 c0 -20 5 -25 25
-25 l25 0 0 -145 0 -145 -24 0 c-19 0 -25 -6 -28 -27 -3 -27 -6 -28 -65 -31
l-63 -3 0 201 0 200 65 0 c63 0 65 -1 65 -25z"/>
</g>
</svg>
